<?xml version="1.0" standalone="no"?>
<!DOCTYPE svg PUBLIC "-//W3C//DTD SVG 20010904//EN"
 "http://www.w3.org/TR/2001/REC-SVG-20010904/DTD/svg10.dtd">
<svg version="1.0" xmlns="http://www.w3.org/2000/svg"
 width="660.000000pt" height="660.000000pt" viewBox="0 0 660.000000 660.000000"
 preserveAspectRatio="xMidYMid meet">
<metadata>
Created by potrace 1.11, written by Peter Selinger 2001-2013
</metadata>
<g transform="translate(0.000000,660.000000) scale(0.100000,-0.100000)"
fill="#000000" stroke="none">
<path d="M4918 6044 c-2 -1 -28 -5 -58 -9 -154 -18 -330 -84 -492 -182 -215
-131 -418 -337 -610 -619 -49 -73 -171 -323 -208 -429 -44 -125 -88 -316 -97
-416 -13 -158 -6 -470 12 -522 2 -6 6 -24 9 -38 21 -125 63 -197 109 -185 42
10 50 47 53 231 2 164 10 314 19 345 2 8 7 33 10 55 3 23 8 52 11 65 3 14 7
36 10 50 41 208 166 495 282 650 94 125 292 273 467 350 104 45 225 90 265 96
14 3 33 7 42 10 25 7 61 14 157 28 111 17 261 13 396 -10 80 -14 309 -105 335
-134 3 -3 19 -14 35 -24 50 -32 176 -137 219 -184 138 -148 223 -346 244 -567
14 -151 6 -353 -17 -392 -6 -11 -21 -5 -67 26 -32 22 -78 58 -102 80 -45 41
-131 91 -222 129 -193 80 -407 73 -585 -21 -115 -60 -227 -199 -249 -308 -3
-13 -9 -46 -15 -74 -10 -51 -8 -279 3 -325 4 -14 9 -40 12 -58 13 -79 68 -287
109 -412 37 -114 51 -163 71 -235 19 -71 53 -215 60 -255 3 -19 9 -51 14 -70
5 -19 12 -55 15 -80 3 -25 8 -56 10 -70 20 -126 22 -325 5 -420 -51 -288 -185
-550 -385 -754 -149 -152 -285 -250 -480 -346 -247 -121 -384 -162 -615 -188
-137 -15 -671 -7 -945 14 -22 1 -103 5 -180 8 -77 4 -185 8 -240 11 -55 2
-173 7 -262 10 -89 3 -197 8 -240 10 -43 2 -141 7 -218 10 -151 6 -184 10
-197 23 -9 9 91 41 152 48 19 3 42 7 50 9 39 11 155 17 370 19 205 2 238 4
261 19 35 24 41 51 18 81 -25 32 -64 43 -173 50 -68 4 -94 9 -107 23 -14 15
-54 102 -114 248 -21 52 -72 263 -81 335 -12 106 0 202 43 335 31 95 77 170
153 246 144 145 331 228 653 289 62 12 77 28 77 78 0 54 -59 77 -148 58 -13
-3 -51 -8 -84 -12 l-61 -7 27 44 c43 70 114 212 146 294 37 93 44 157 23 199
-19 36 -30 46 -59 46 -30 0 -55 -33 -107 -140 -70 -149 -182 -279 -307 -359
-64 -41 -231 -116 -280 -126 -8 -2 -15 -4 -15 -5 0 -1 -9 -3 -20 -5 -11 -2
-36 -7 -55 -11 -63 -13 -74 -14 -195 -17 -116 -4 -233 8 -340 33 -59 14 -78
18 -86 19 -3 1 -4 43 -3 94 8 277 -123 489 -356 578 -78 30 -108 34 -230 33
-99 -1 -125 -5 -185 -28 -250 -96 -382 -304 -370 -582 4 -110 6 -119 36 -218
57 -183 190 -351 336 -423 64 -32 83 -36 155 -38 98 -2 171 15 251 58 65 34
200 159 211 195 4 12 12 22 17 22 5 0 9 9 9 20 0 33 26 34 113 7 214 -65 267
-75 409 -76 l68 -1 -35 -49 c-55 -77 -115 -215 -135 -310 -12 -61 -16 -121
-14 -206 5 -223 14 -275 74 -454 24 -68 38 -127 34 -131 -11 -11 -46 -17 -204
-35 -141 -16 -277 -100 -320 -197 -43 -97 -32 -205 26 -263 43 -43 85 -54 221
-60 59 -2 151 -7 203 -9 52 -3 154 -8 225 -11 72 -3 166 -7 210 -10 44 -2 148
-7 230 -11 83 -3 173 -8 200 -9 28 -1 124 -6 215 -10 91 -3 196 -8 234 -10
533 -26 888 -26 1023 -1 10 2 41 7 68 10 82 11 105 16 215 42 105 25 209 56
265 79 351 146 529 270 746 516 34 38 139 197 171 258 16 31 33 60 37 66 23
30 112 260 126 323 3 12 7 32 10 44 7 32 12 62 25 153 6 44 13 94 15 110 21
134 25 353 11 503 -6 64 -25 176 -55 322 -12 59 -99 407 -112 445 -9 31 -77
266 -85 298 -2 9 -7 27 -10 40 -9 36 -5 127 8 169 6 22 29 57 49 78 91 94 201
111 324 51 141 -70 210 -177 260 -406 17 -75 18 -81 30 -164 4 -31 15 -61 26
-72 25 -25 32 -22 184 93 170 128 276 253 370 437 102 200 118 268 119 481 1
186 -7 286 -31 395 -4 17 -8 35 -9 40 -1 6 -16 47 -32 92 -83 220 -195 387
-396 588 -143 143 -210 205 -221 205 -2 0 -35 20 -72 44 -155 100 -381 193
-538 220 -66 12 -367 20 -377 10z m-4268 -2848 c59 -12 142 -58 187 -103 82
-83 126 -209 100 -286 -8 -25 -14 -28 -37 -23 -41 8 -151 77 -270 171 -119 92
-139 105 -172 105 -36 0 -51 -15 -50 -51 1 -56 94 -168 227 -276 172 -138 210
-170 210 -181 0 -33 -130 -159 -202 -196 -57 -29 -166 -17 -214 24 -102 87
-171 194 -203 315 -22 84 -16 234 12 295 70 152 247 241 412 206z"/>
<path d="M1491 6019 c-19 -21 -61 -116 -61 -139 0 -22 -19 -8 -25 18 -10 46
-60 92 -99 92 -8 0 -27 -11 -42 -23 -36 -31 -34 -62 10 -170 49 -118 48 -127
-23 -197 -101 -98 -139 -158 -223 -345 -5 -12 -10 -27 -12 -35 -1 -8 -10 -40
-19 -70 -9 -30 -21 -74 -27 -97 -6 -24 -16 -43 -22 -43 -28 0 -264 -128 -339
-185 -124 -93 -170 -147 -332 -390 -81 -121 -168 -247 -192 -280 -99 -133
-106 -224 -29 -338 60 -87 152 -181 234 -239 67 -47 81 -54 140 -63 75 -12 97
-18 155 -48 88 -44 168 -47 280 -10 6 1 42 10 80 18 102 23 134 50 107 92 -14
22 -99 53 -161 59 -34 4 -61 9 -61 12 0 3 14 27 30 54 44 70 48 111 15 144
-35 35 -65 27 -130 -35 -27 -26 -63 -56 -79 -66 -63 -38 -197 -11 -280 56 -34
28 -146 159 -146 171 0 4 25 35 55 68 56 61 120 146 233 307 80 115 147 184
234 240 123 80 248 129 371 148 79 11 94 31 102 132 8 100 14 142 26 198 19
89 128 295 155 295 8 0 24 -51 40 -125 29 -131 18 -304 -31 -505 -25 -107 -25
-148 2 -168 26 -19 63 -7 101 34 19 20 35 34 36 32 5 -9 123 -184 136 -202 52
-73 267 -294 340 -349 30 -23 57 -45 60 -48 12 -14 132 -90 200 -126 186 -100
223 -118 345 -170 72 -30 139 -58 150 -63 11 -5 76 -30 145 -55 272 -102 387
-172 567 -346 105 -100 178 -187 226 -265 61 -101 154 -330 171 -420 7 -35 18
-104 21 -127 8 -70 17 -133 21 -151 7 -31 7 -293 0 -304 -3 -5 -8 -63 -12
-128 -6 -114 -5 -120 15 -138 32 -29 61 -30 89 -4 37 35 48 74 67 238 3 30 8
66 10 80 23 154 34 416 21 505 -3 17 -7 53 -10 80 -24 202 -78 354 -203 563
-64 108 -87 136 -222 269 -194 193 -434 348 -771 498 -58 26 -125 56 -150 67
-88 40 -304 149 -331 168 -15 11 -30 20 -34 20 -11 0 -158 111 -230 174 -177
154 -323 333 -424 518 -39 70 -42 84 -41 140 6 210 2 243 -54 423 -1 6 -6 23
-11 38 -4 16 -18 51 -31 78 -13 27 -24 52 -24 57 0 9 39 51 103 110 26 24 48
49 48 55 1 7 3 22 4 34 3 26 -31 61 -65 66 -28 5 -54 -6 -89 -37 l-23 -21 17
40 c35 84 36 85 20 116 -9 16 -19 29 -23 29 -4 1 -23 3 -43 6 -30 4 -41 1 -58
-17z"/>
<path d="M705 4484 c-53 -27 -78 -76 -79 -150 -1 -85 18 -104 104 -104 113 0
190 73 190 180 0 66 -20 82 -112 86 -53 3 -82 0 -103 -12z"/>
</g>
</svg>
